<svg xmlns="http://www.w3.org/2000/svg" viewBox="0 0 900 500"><rect width="900" height="500" fill="#e7eeff"/><path d="M0 0h435L365 80l-35 70-60 90-45 110-70 150H0Z" fill="#bce5e6"/><path d="m435 0 55 30 45 70-15 80 45 100-50 110-105 110H155l70-150 45-110 60-90 35-70Z" fill="#f0f3e9"/><g fill="none" stroke="#c9d4bb" stroke-width="2"><path d="m445 30-50 100 40 80-70 90 10 130"/><path d="m485 60-60 110 65 95-70 145"/><path d="m350 160 70 30 30 70-90 60"/></g><path d="m365 100-20 70-65 95-30 95-70 100" stroke="#fff" stroke-width="6" fill="none"/><g fill="#157375" stroke="white" stroke-width="3"><circle cx="348" cy="132" r="10"/><circle cx="320" cy="191" r="10"/><circle cx="420" cy="226" r="10"/><circle cx="393" cy="258" r="10"/><circle cx="335" cy="326" r="10"/><circle cx="211" cy="431" r="10"/></g><g font-family="sans-serif" font-size="20" fill="#1e293b"><text x="372" y="136">Batroun</text><text x="208" y="197">Byblos</text><text x="446" y="230">Faraya</text><text x="417" y="265">Faqra</text><text x="360" y="332">Chouf</text><text x="234" y="438">Sour</text><text x="56" y="280" fill="#157375" font-size="17">Mediterranean Sea</text><text x="600" y="70" font-size="14" letter-spacing="3">EXPLORE LEBANON</text><text x="602" y="100" font-size="12" fill="#64748b">Illustrative region guide · not to scale</text></g></svg>
